<?xml version="1.0" encoding="UTF-8"?>
<svg id="Layer_2" data-name="Layer 2" xmlns="http://www.w3.org/2000/svg" viewBox="0 0 500 500">
  <defs>
    <style>
      .cls-1 {
        fill: #ddbe3a;
      }
    </style>
  </defs>
  <g>
    <g>
      <path class="cls-1" d="m65.81,114.84c4.44,10.66,12.7,19.89,22.21,26.09,13.16-22.88,12.98-61.19-20.99-61.02-5.13,10.81-6.31,23.57-1.22,34.93Z"/>
      <path class="cls-1" d="m82.9,65.85c-.82-2.24-1.55-4.6-2.04-7.21-.61-3.08-1.21-6.46-1.33-10.17-.09-3.71.05-7.77.5-12.22-.45,4.45-1.13,8.45-1.97,12.1-.81,3.65-1.55,6.98-2.55,10.05-.89,2.66-1.76,5.11-2.63,7.46h10.02Z"/>
    </g>
    <path class="cls-1" d="m147.88,447.39c-7.12-6.74-10.67-14.97-10.67-24.71v-143.02c-7.5-1.34-15.24-3.84-22.79-8.35-5.09-3.04-9.63-7.27-13.71-12.31v163.68c-.38,9.74-4.03,17.97-10.95,24.71-6.93,6.74-15.26,10.11-24.99,10.11h-7.3v5.61h122.99v-5.61h-7.3c-9.74,0-18.16-3.37-25.27-10.11Z"/>
    <path class="cls-1" d="m104.26,226.66c-1.18-.49-2.37-1.03-3.56-1.61v17.96c1.89.43,3.8.77,5.49.9,8.05.63,16.48-2.26,25.63-3.91,1.81-.35,3.59-.66,5.38-.93v-5.86c-9.9-.17-21.05-1.65-32.95-6.55Z"/>
    <path class="cls-1" d="m57.46,70v5.62h7.3c9.73,0,18.06,3.37,24.99,10.11,6.92,6.74,10.57,14.98,10.95,24.71v20.97c1-1.97,1.99-3.74,2.9-5.14,2.16-3.41,3.41-7,4.28-9.77.94-2.79,1.3-4.72,1.3-4.72,9.34,17.41,12.1,30.61,11.67,43.24-.38,6.29-1.08,12.16-2.54,18.03-1.16,5.72-2.78,11.33-4.15,16.68-4.31-.84-8.82-1.88-13.47-3.22v4.29c5.39.79,11,1.94,16.82,4.98-2.08-8.66.74-14.35,3.38-20.53,2.47-6.05,4.94-10.75,6.57-15.31,1.04-3.04,1.67-6.9,1.92-9.21.23-2.29.15-3.81.15-3.81,2.95,3.27,5.45,6.39,7.66,9.48v-45.95c.37-9.73,4.02-17.97,10.95-24.71,6.92-6.74,15.25-10.11,24.99-10.11h7.3v-5.62H57.46Z"/>
    <path class="cls-1" d="m166.4,203.29c-.82,5.13-1.55,10.61-3.46,17.2-1.81,6.67-4.44,14.66,5.12,23.79,2.22,2.02,5.93,5.67,10.17,9.02-5.29-2.04-10.3-4.32-13.27-5.62-12.91-5.98-22.62-6.15-31.63-4.62-8.86,1.38-17.2,4.71-25.02,4.02-4.31-.38-8.54-1.57-11.51-2.79-2.93-1.23-4.8-2.33-4.8-2.33,6.6,13.68,16.95,23.03,28.3,28.83,11.86,5.91,24.22,8.14,35.95,8.17,5.88.04,11.47-.33,16.87-1.11,5.38-.76,10.32-1.56,15.08-2.62,4.71-1,9.06-1.96,13.05-2.66,4.03-.78,7.74-1.35,11.12-1.42l.47-.93c-8.25-9.57-11.29-26.16-16.89-41.07-2.7-7.04-5.8-13.92-10.64-19.96-4.62-5.94-10.7-11.21-19.56-16.23,0,0,.36,1.2.58,3.1.24,1.9.52,4.44.07,7.22Z"/>
    <path class="cls-1" d="m129.01,164.6c-1.48,4.2-4.62,8.94-6.85,14.51-2.39,5.68-3.91,12.29-2.11,20.22-7.45-3.97-14.74-5.41-21.4-6.4-6.71-.9-12.76-1.34-17.77-3.19-3.4-1.21-6.41-3.25-8.56-4.99-2.16-1.71-3.5-3.1-3.5-3.1,3.07,12.05,9.06,21.41,15.78,28.55,7.08,7.23,15.04,12.05,23.12,15.09,16.54,6.32,32.4,5.6,44.27,6.48-2.45-11.03-1.64-25.19-3.31-38.93-.88-6.71-2.22-13.42-5.05-19.94-2.6-6.53-6.82-12.73-12.79-19.56,0,0,.06,1.39-.16,3.5-.24,2.12-.73,4.97-1.67,7.76Z"/>
    <path class="cls-1" d="m104.9,130.17c-1.69,2.81-3.69,7.09-5.51,11.88-1.93,4.81-3.24,9.98-4.01,14.38-3.02-2.85-8.09-5.74-12.86-8.65-4.9-2.87-9.93-5.59-12.96-7.49-3.41-2.07-6.52-4.91-8.65-7.28-2.08-2.39-3.32-4.25-3.32-4.25,2.06,21.47,11.59,35.71,22.17,44.17,5.12,4.3,10.97,7.11,16.34,9.3,5.58,2.04,10.96,3.36,16.02,4.32,1.21-4.8,2.62-9.83,3.67-14.96,1.29-5.27,1.97-10.51,2.4-16.13.6-11.27-1.35-22.98-8.5-38.33,0,0-.33,1.73-1.14,4.24-.76,2.49-1.84,5.72-3.64,8.8Z"/>
    <g>
      <path class="cls-1" d="m348.93,80.11c11.6,6.74,17.59,16.85,17.97,30.33v191.67c3.18-.53,9.19-1.46,14.5-2.54,6.54-1.13,14.13-2.73,22-4.87V111c.37-9.73,4.02-18.06,10.95-24.99,6.92-6.92,15.25-10.39,24.99-10.39h7.3v-5.62h-122.99v5.62h7.3c6.36,0,12.35,1.5,17.97,4.49Z"/>
      <path class="cls-1" d="m414.36,447.39c-6.93-6.74-10.58-14.97-10.95-24.71v-120.89c-7.99,1.66-15.71,2.84-22.12,3.58-6.31.77-11.28,1.13-14.38,1.3v116.01c-.38,9.36-4.03,17.51-10.95,24.43-6.93,6.93-15.26,10.39-24.99,10.39h-7.3v5.61h122.99v-5.61h-7.3c-9.74,0-18.07-3.37-24.99-10.11Z"/>
    </g>
  </g>
  <g id="Layer_3" data-name="Layer 3">
    <g>
      <path class="cls-1" d="m217.67,225.29c1.01,7.66-1.27,16.67-.97,26.08.27,9.44,2.99,19.89,14.78,29.17,2.54,2.16,7.07,5.4,11.69,8.74-5.3-1.57-10.73-2.86-13.8-3.97-14.09-4.46-23.56-2.54-31.8,1.36-8.25,3.93-14.89,9.45-22.81,10.7-4.42.74-8.88.12-12.35-.5-3.45-.66-5.82-1.46-5.82-1.46,12.29,14.1,25.54,21.83,37.89,25.5,12.37,3.76,24.05,3.18,34.36,1.01,20.79-4.57,36.35-16.31,48.23-19.12l6.77-1.55c-24.66-19.34-15.97-29.29-26.11-46.43-4.08-9.12-11.4-17.06-17.96-24.97-6.61-7.87-15.02-14.57-26.66-20.41,0,0,.89,1.8,1.89,4.69,1.02,2.86,2.08,6.96,2.67,11.16Z"/>
      <path class="cls-1" d="m310.85,301.75c3.41.93,9.16,2.52,15.01,3.65-6.01.75-12.07,1.32-15.7,1.59-4.14.39-7.85.89-11.22,1.68-3.39.78-6.47,1.92-9.24,3.1-5.6,2.4-10.11,5.68-14.09,9.28-8.04,7.09-13.83,15.55-22.7,20.32-4.97,2.59-10.63,4.27-15.09,5.31-4.5,1.03-7.7,1.25-7.7,1.25,20.16,7.81,38.38,9.1,53.64,7.04,14.87-2.23,27.16-7.41,37.29-13.89,4.98-3.11,9.46-6.46,13.54-9.95,4.04-3.42,7.68-6.7,11.03-10.03,3.33-3.25,6.37-6.27,9.23-8.89,2.84-2.71,5.52-5.03,8.13-6.76,0,0,7.38-.3,18.22-1.63,10.57-1.22,24.25-3.76,37.31-7.6,12.66-3.64,24.69-8.56,33.29-12.76,2.12-1.05,4.07-1.96,5.76-2.85,1.67-.92,3.12-1.72,4.31-2.38,2.37-1.31,3.72-2.05,3.72-2.05l-2.68-6.84s-1.29.8-3.55,2.21c-1.14.71-2.52,1.57-4.12,2.56-1.62.96-3.48,1.96-5.52,3.1-8.25,4.58-19.85,10.09-32.19,14.38-12.71,4.51-26.15,7.81-36.61,9.62-5.31,1.08-9.83,1.53-13.01,2.07-1.6.26-2.86.36-3.73.45-.87.09-1.33.14-1.33.14-10.84-5.26-21.67-20.48-35.46-33.97-7.09-6.84-14.98-13.66-24.66-18.73-9.87-5.43-21.61-9.24-37.13-11.18,6.16,5.58,9.78,11.09,12.17,16.91,2.43,5.63,3.69,11.45,5.32,17.15,1.61,5.74,3.67,11.06,7.77,16,2.04,2.47,4.6,4.74,7.89,6.68,3.27,1.94,7.22,3.8,12.09,5.01Z"/>
    </g>
  </g>
</svg>